<svg width="512" height="512" viewBox="0 0 512 512" fill="none" xmlns="http://www.w3.org/2000/svg" xmlns:xlink="http://www.w3.org/1999/xlink"><rect id="_r_8_" width="512" height="512" x="0" y="0" rx="128" fill="url(#_r_9_)" stroke="#FFFFFF" stroke-width="0" stroke-opacity="100%" paint-order="stroke"></rect><clipPath id="clip"><use xlink:href="#_r_8_"></use></clipPath><defs><linearGradient id="_r_9_" gradientUnits="userSpaceOnUse" gradientTransform="rotate(90)" style="transform-origin: center center;"><stop stop-color="#1D1D1D"></stop><stop offset="1" stop-color="#000000"></stop></linearGradient><radialGradient id="_r_a_" cx="0" cy="0" r="1" gradientUnits="userSpaceOnUse" gradientTransform="translate(256) rotate(90) scale(512)"><stop stop-color="white"></stop><stop offset="1" stop-color="white" stop-opacity="0"></stop></radialGradient></defs><svg xmlns="http://www.w3.org/2000/svg" width="352" height="352" viewBox="0 0 24 24" fill="none" stroke="currentColor" stroke-width="2" stroke-linecap="round" stroke-linejoin="round" class="lucide lucide-key-square-icon lucide-key-square" x="80" y="80" alignment-baseline="middle" style="color: rgb(230, 230, 230); width: 352px; height: 352px;"><path d="M12.4 2.7a2.5 2.5 0 0 1 3.4 0l5.5 5.5a2.5 2.5 0 0 1 0 3.4l-3.7 3.7a2.5 2.5 0 0 1-3.4 0L8.7 9.8a2.5 2.5 0 0 1 0-3.4z"></path><path d="m14 7 3 3"></path><path d="m9.4 10.6-6.814 6.814A2 2 0 0 0 2 18.828V21a1 1 0 0 0 1 1h3a1 1 0 0 0 1-1v-1a1 1 0 0 1 1-1h1a1 1 0 0 0 1-1v-1a1 1 0 0 1 1-1h.172a2 2 0 0 0 1.414-.586l.814-.814"></path></svg></svg>